<svg xmlns="http://www.w3.org/2000/svg"  viewBox="0 0 48 48" width="30px" height="30px"><path fill="none" stroke="gray" stroke-linecap="round" stroke-linejoin="round" stroke-miterlimit="10" stroke-width="3" d="M41.5,14.5v17c0,5.5-4.5,10-10,10H19.9"/><path fill="none" stroke="gray" stroke-linecap="round" stroke-linejoin="round" stroke-miterlimit="10" stroke-width="3" d="M36.5,25.7v4.8c0,3.3-2.7,6-6,6h-18c-3.3,0-6-2.7-6-6v-12"/><path fill="none" stroke="gray" stroke-linecap="round" stroke-linejoin="round" stroke-miterlimit="10" stroke-width="3" d="M6.5,14v-1.5c0-3.3,2.7-6,6-6h18c3.3,0,6,2.7,6,6v7.7"/><circle cx="27.5" cy="15.5" r="2.5"/><path fill="none" stroke="gray" stroke-linecap="round" stroke-linejoin="round" stroke-miterlimit="10" stroke-width="3" d="M17.7,31.7l7.8-7.5c0.4-0.4,1-0.7,1.6-0.7c0.6,0,1.2,0.2,1.6,0.7l7.7,7.4"/><path fill="none" stroke="gray" stroke-linecap="round" stroke-linejoin="round" stroke-miterlimit="10" stroke-width="3" d="M11.3,22.7l1.6-1.5c0.4-0.4,1-0.7,1.6-0.7c0.6,0,1.2,0.2,1.6,0.7l6.2,6"/></svg>